<?xml version="1.0" encoding="UTF-8" standalone="no"?>
<!DOCTYPE svg PUBLIC "-//W3C//DTD SVG 1.1//EN" "http://www.w3.org/Graphics/SVG/1.1/DTD/svg11.dtd">
<svg width="100%" height="100%" viewBox="0 0 216 39" version="1.1" xmlns="http://www.w3.org/2000/svg" xmlns:xlink="http://www.w3.org/1999/xlink" xml:space="preserve" xmlns:serif="http://www.serif.com/" style="fill-rule:evenodd;clip-rule:evenodd;stroke-linejoin:round;stroke-miterlimit:1.41421;">
    <g transform="matrix(1,0,0,1,-15.3732,-68.1046)">
        <g>
            <path d="M22.423,88.565C26.473,88.565 29.383,86.435 29.383,82.685C29.383,79.025 26.713,77.795 23.173,76.535C21.193,75.815 19.543,75.095 19.543,73.475C19.543,72.035 20.683,71.045 22.633,71.045C23.863,71.045 24.703,71.315 25.243,71.645C25.123,71.885 25.033,72.095 25.033,72.575C25.033,73.565 25.813,74.585 27.193,74.585C28.333,74.585 29.203,73.775 29.203,72.365C29.203,69.995 26.353,68.105 22.663,68.105C18.673,68.105 16.123,70.565 16.123,73.715C16.123,77.375 18.703,78.545 22.363,79.865C24.343,80.555 25.993,81.335 25.993,82.955C25.993,84.665 24.613,85.625 22.453,85.625C21.163,85.625 20.053,85.295 19.333,84.785C19.513,84.425 19.603,84.065 19.603,83.585C19.603,82.625 18.763,81.635 17.443,81.635C16.213,81.635 15.373,82.565 15.373,83.975C15.373,86.375 18.523,88.565 22.423,88.565Z" style="fill-rule:nonzero;"/>
            <path d="M41.533,88.565C45.883,88.565 48.913,86.105 48.913,80.945L48.913,71.495L51.073,71.495L51.073,68.465L43.243,68.465L43.243,71.495L45.613,71.495L45.613,80.945C45.613,84.005 44.083,85.475 41.533,85.475C39.013,85.475 37.483,83.855 37.483,80.825L37.483,71.495L39.853,71.495L39.853,68.465L31.933,68.465L31.933,71.495L34.093,71.495L34.093,81.005C34.093,86.105 37.123,88.565 41.533,88.565Z" style="fill-rule:nonzero;"/>
            <path d="M53.793,88.205L61.893,88.205L61.893,85.175L59.433,85.175L59.433,81.635C59.853,81.665 60.423,81.665 61.353,81.665C66.003,81.665 69.213,79.445 69.213,74.915C69.213,70.895 65.973,68.465 61.743,68.465L53.793,68.465L53.793,71.495L56.043,71.495L56.043,85.175L53.793,85.175L53.793,88.205ZM61.653,78.695C60.273,78.695 59.793,78.665 59.433,78.635L59.433,71.495L61.563,71.495C63.993,71.495 65.703,72.845 65.703,74.915C65.703,77.255 64.203,78.695 61.653,78.695Z" style="fill-rule:nonzero;"/>
            <path d="M71.723,88.205L86.483,88.205L86.483,82.565L83.243,82.565L83.243,85.205L77.363,85.205L77.363,79.625L83.333,79.625L83.333,76.745L77.363,76.745L77.363,71.465L83.213,71.465L83.213,74.105L86.453,74.105L86.453,68.465L71.723,68.465L71.723,71.495L73.973,71.495L73.973,85.175L71.723,85.175L71.723,88.205Z" style="fill-rule:nonzero;"/>
            <path d="M89.733,88.205L97.833,88.205L97.833,85.175L95.373,85.175L95.373,80.735C95.793,80.765 96.363,80.765 96.993,80.765C97.383,80.765 97.773,80.735 98.193,80.705L102.153,88.205L106.713,88.205L106.713,85.175L104.463,85.175L101.433,79.805C103.593,78.935 105.153,76.985 105.153,74.435C105.153,70.415 101.913,68.465 97.383,68.465L89.733,68.465L89.733,71.495L91.983,71.495L91.983,85.175L89.733,85.175L89.733,88.205ZM97.293,77.885C96.213,77.885 95.733,77.855 95.373,77.825L95.373,71.495L97.203,71.495C99.933,71.495 101.643,72.485 101.643,74.555C101.643,76.625 99.843,77.885 97.293,77.885Z" style="fill-rule:nonzero;"/>
            <path d="M115.973,88.565C120.023,88.565 122.933,86.435 122.933,82.685C122.933,79.025 120.263,77.795 116.723,76.535C114.743,75.815 113.093,75.095 113.093,73.475C113.093,72.035 114.233,71.045 116.183,71.045C117.413,71.045 118.253,71.315 118.793,71.645C118.673,71.885 118.583,72.095 118.583,72.575C118.583,73.565 119.363,74.585 120.743,74.585C121.883,74.585 122.753,73.775 122.753,72.365C122.753,69.995 119.903,68.105 116.213,68.105C112.223,68.105 109.673,70.565 109.673,73.715C109.673,77.375 112.253,78.545 115.913,79.865C117.893,80.555 119.543,81.335 119.543,82.955C119.543,84.665 118.163,85.625 116.003,85.625C114.713,85.625 113.603,85.295 112.883,84.785C113.063,84.425 113.153,84.065 113.153,83.585C113.153,82.625 112.313,81.635 110.993,81.635C109.763,81.635 108.923,82.565 108.923,83.975C108.923,86.375 112.073,88.565 115.973,88.565Z" style="fill-rule:nonzero;"/>
            <path d="M125.883,88.205L140.643,88.205L140.643,82.565L137.403,82.565L137.403,85.205L131.523,85.205L131.523,79.625L137.493,79.625L137.493,76.745L131.523,76.745L131.523,71.465L137.373,71.465L137.373,74.105L140.613,74.105L140.613,68.465L125.883,68.465L125.883,71.495L128.133,71.495L128.133,85.175L125.883,85.175L125.883,88.205Z" style="fill-rule:nonzero;"/>
            <path d="M143.893,88.205L151.993,88.205L151.993,85.175L149.533,85.175L149.533,80.735C149.953,80.765 150.523,80.765 151.153,80.765C151.543,80.765 151.933,80.735 152.353,80.705L156.313,88.205L160.873,88.205L160.873,85.175L158.623,85.175L155.593,79.805C157.753,78.935 159.313,76.985 159.313,74.435C159.313,70.415 156.073,68.465 151.543,68.465L143.893,68.465L143.893,71.495L146.143,71.495L146.143,85.175L143.893,85.175L143.893,88.205ZM151.453,77.885C150.373,77.885 149.893,77.855 149.533,77.825L149.533,71.495L151.363,71.495C154.093,71.495 155.803,72.485 155.803,74.555C155.803,76.625 154.003,77.885 151.453,77.885Z" style="fill-rule:nonzero;"/>
            <path d="M170.443,88.415L172.363,88.415L179.533,71.495L181.333,71.495L181.333,68.465L173.533,68.465L173.533,71.495L175.723,71.495L171.463,82.325L167.203,71.495L169.273,71.495L169.273,68.465L161.473,68.465L161.473,71.495L163.273,71.495L170.443,88.415Z" style="fill-rule:nonzero;"/>
            <path d="M183.533,88.205L191.723,88.205L191.723,85.175L189.323,85.175L189.323,71.495L191.723,71.495L191.723,68.465L183.533,68.465L183.533,71.495L185.933,71.495L185.933,85.175L183.533,85.175L183.533,88.205Z" style="fill-rule:nonzero;"/>
            <path d="M205.153,88.565C208.303,88.565 211.153,87.275 213.073,85.145L210.823,82.805C209.353,84.395 207.463,85.415 205.153,85.415C200.983,85.415 198.223,82.265 198.223,78.305C198.223,74.195 201.163,71.255 205.003,71.255C206.803,71.255 207.943,71.705 208.513,72.155C208.393,72.395 208.303,72.785 208.303,73.175C208.303,74.465 209.233,75.305 210.583,75.305C211.813,75.305 212.743,74.315 212.743,72.875C212.743,70.505 209.683,68.105 205.093,68.105C199.333,68.105 194.713,72.395 194.713,78.335C194.713,84.485 199.063,88.565 205.153,88.565Z" style="fill-rule:nonzero;"/>
            <path d="M216.003,88.205L230.763,88.205L230.763,82.565L227.523,82.565L227.523,85.205L221.643,85.205L221.643,79.625L227.613,79.625L227.613,76.745L221.643,76.745L221.643,71.465L227.493,71.465L227.493,74.105L230.733,74.105L230.733,68.465L216.003,68.465L216.003,71.495L218.253,71.495L218.253,85.175L216.003,85.175L216.003,88.205Z" style="fill-rule:nonzero;"/>
            <path d="M32.931,95.447C33.331,95.447 33.651,95.107 33.651,94.707C33.651,94.287 33.331,93.947 32.931,93.947C32.531,93.947 32.211,94.287 32.211,94.707C32.211,95.107 32.531,95.447 32.931,95.447ZM31.171,106.567L35.031,106.567L35.031,105.907L33.471,105.907L33.471,98.247L31.171,98.247L31.171,98.907L32.731,98.907L32.731,105.907L31.171,105.907L31.171,106.567Z" style="fill-rule:nonzero;"/>
            <path d="M45.411,98.247L43.251,98.247L43.251,98.907L44.711,98.907L44.711,105.907L43.251,105.907L43.251,106.567L46.891,106.567L46.891,105.907L45.451,105.907L45.451,100.607C46.271,99.607 47.391,98.787 48.611,98.787C49.451,98.787 50.011,99.107 50.291,99.687C50.471,100.047 50.531,100.507 50.531,101.067L50.531,105.907L49.091,105.907L49.091,106.567L52.731,106.567L52.731,105.907L51.271,105.907L51.271,100.967C51.271,100.287 51.151,99.667 50.891,99.207C50.511,98.547 49.811,98.107 48.711,98.107C47.411,98.107 46.191,98.987 45.411,99.927L45.411,98.247Z" style="fill-rule:nonzero;"/>
            <path d="M63.731,106.707C64.411,106.707 64.891,106.487 65.291,106.247L65.411,105.507C64.911,105.807 64.411,106.007 63.891,106.007C63.351,106.007 63.011,105.827 62.831,105.447C62.731,105.227 62.691,104.987 62.691,104.667L62.691,98.907L65.371,98.907L65.371,98.247L62.691,98.247L62.691,95.767L61.951,96.027L61.951,98.247L60.431,98.247L60.431,98.907L61.951,98.907L61.951,104.747C61.951,105.147 62.011,105.487 62.151,105.787C62.431,106.387 62.951,106.707 63.731,106.707Z" style="fill-rule:nonzero;"/>
            <path d="M81.211,102.487C81.251,102.367 81.271,102.207 81.271,102.007C81.271,99.967 79.951,98.107 77.571,98.107C75.271,98.107 73.631,100.027 73.631,102.387C73.631,105.007 75.351,106.707 77.891,106.707C78.971,106.707 80.011,106.387 80.811,105.847L80.871,105.087C79.991,105.667 79.091,106.047 77.971,106.047C75.871,106.047 74.471,104.807 74.391,102.487L81.211,102.487ZM77.511,98.767C79.431,98.767 80.431,100.127 80.511,101.847L74.411,101.847C74.591,100.007 75.911,98.767 77.511,98.767Z" style="fill-rule:nonzero;"/>
            <path d="M94.431,98.107C93.571,98.107 92.551,99.007 91.931,100.107L91.931,98.247L89.771,98.247L89.771,98.907L91.231,98.907L91.231,105.907L89.771,105.907L89.771,106.567L93.611,106.567L93.611,105.907L91.971,105.907L91.971,100.847C92.511,99.867 93.291,99.027 94.051,98.907C94.071,99.267 94.391,99.567 94.751,99.567C95.151,99.567 95.411,99.267 95.411,98.907C95.411,98.487 95.071,98.107 94.431,98.107Z" style="fill-rule:nonzero;"/>
            <path d="M105.431,98.247L103.271,98.247L103.271,98.907L104.731,98.907L104.731,105.907L103.271,105.907L103.271,106.567L106.911,106.567L106.911,105.907L105.471,105.907L105.471,100.607C106.291,99.607 107.411,98.787 108.631,98.787C109.471,98.787 110.031,99.107 110.311,99.687C110.491,100.047 110.551,100.507 110.551,101.067L110.551,105.907L109.111,105.907L109.111,106.567L112.751,106.567L112.751,105.907L111.291,105.907L111.291,100.967C111.291,100.287 111.171,99.667 110.911,99.207C110.531,98.547 109.831,98.107 108.731,98.107C107.431,98.107 106.211,98.987 105.431,99.927L105.431,98.247Z" style="fill-rule:nonzero;"/>
            <path d="M123.631,106.707C124.851,106.707 125.951,106.047 126.631,105.307L126.631,106.567L128.771,106.567L128.771,105.907L127.331,105.907L127.331,100.667C127.331,99.987 127.131,99.427 126.751,99.007C126.251,98.427 125.391,98.107 124.291,98.107C122.411,98.107 121.351,99.067 121.351,99.847C121.351,100.227 121.591,100.527 121.991,100.527C122.351,100.527 122.591,100.227 122.591,99.927C122.591,99.707 122.511,99.507 122.391,99.387C122.711,99.067 123.271,98.747 124.231,98.747C125.151,98.747 125.811,99.047 126.191,99.487C126.471,99.827 126.611,100.267 126.611,100.787L126.611,102.307C126.011,102.067 124.911,101.827 123.951,101.827C122.151,101.827 120.851,102.827 120.851,104.327C120.851,105.647 121.871,106.707 123.631,106.707ZM123.731,106.067C122.271,106.067 121.591,105.227 121.591,104.287C121.591,103.307 122.351,102.447 123.991,102.447C124.891,102.447 125.851,102.627 126.611,102.867L126.611,104.607C125.911,105.407 124.911,106.067 123.731,106.067Z" style="fill-rule:nonzero;"/>
            <path d="M139.731,106.707C140.411,106.707 140.891,106.487 141.291,106.247L141.411,105.507C140.911,105.807 140.411,106.007 139.891,106.007C139.351,106.007 139.011,105.827 138.831,105.447C138.731,105.227 138.691,104.987 138.691,104.667L138.691,98.907L141.371,98.907L141.371,98.247L138.691,98.247L138.691,95.767L137.951,96.027L137.951,98.247L136.431,98.247L136.431,98.907L137.951,98.907L137.951,104.747C137.951,105.147 138.011,105.487 138.151,105.787C138.431,106.387 138.951,106.707 139.731,106.707Z" style="fill-rule:nonzero;"/>
            <path d="M151.391,95.447C151.791,95.447 152.111,95.107 152.111,94.707C152.111,94.287 151.791,93.947 151.391,93.947C150.991,93.947 150.671,94.287 150.671,94.707C150.671,95.107 150.991,95.447 151.391,95.447ZM149.631,106.567L153.491,106.567L153.491,105.907L151.931,105.907L151.931,98.247L149.631,98.247L149.631,98.907L151.191,98.907L151.191,105.907L149.631,105.907L149.631,106.567Z" style="fill-rule:nonzero;"/>
            <path d="M166.011,106.707C168.471,106.707 170.211,104.807 170.211,102.407C170.211,99.987 168.491,98.107 166.011,98.107C163.571,98.107 161.811,100.007 161.811,102.407C161.811,104.827 163.551,106.707 166.011,106.707ZM166.011,106.047C164.011,106.047 162.591,104.507 162.591,102.407C162.591,100.327 164.011,98.767 166.011,98.767C168.031,98.767 169.431,100.327 169.431,102.407C169.431,104.507 168.031,106.047 166.011,106.047Z" style="fill-rule:nonzero;"/>
            <path d="M180.831,98.247L178.671,98.247L178.671,98.907L180.131,98.907L180.131,105.907L178.671,105.907L178.671,106.567L182.311,106.567L182.311,105.907L180.871,105.907L180.871,100.607C181.691,99.607 182.811,98.787 184.031,98.787C184.871,98.787 185.431,99.107 185.711,99.687C185.891,100.047 185.951,100.507 185.951,101.067L185.951,105.907L184.511,105.907L184.511,106.567L188.151,106.567L188.151,105.907L186.691,105.907L186.691,100.967C186.691,100.287 186.571,99.667 186.311,99.207C185.931,98.547 185.231,98.107 184.131,98.107C182.831,98.107 181.611,98.987 180.831,99.927L180.831,98.247Z" style="fill-rule:nonzero;"/>
            <path d="M199.031,106.707C200.251,106.707 201.351,106.047 202.031,105.307L202.031,106.567L204.171,106.567L204.171,105.907L202.731,105.907L202.731,100.667C202.731,99.987 202.531,99.427 202.151,99.007C201.651,98.427 200.791,98.107 199.691,98.107C197.811,98.107 196.751,99.067 196.751,99.847C196.751,100.227 196.991,100.527 197.391,100.527C197.751,100.527 197.991,100.227 197.991,99.927C197.991,99.707 197.911,99.507 197.791,99.387C198.111,99.067 198.671,98.747 199.631,98.747C200.551,98.747 201.211,99.047 201.591,99.487C201.871,99.827 202.011,100.267 202.011,100.787L202.011,102.307C201.411,102.067 200.311,101.827 199.351,101.827C197.551,101.827 196.251,102.827 196.251,104.327C196.251,105.647 197.271,106.707 199.031,106.707ZM199.131,106.067C197.671,106.067 196.991,105.227 196.991,104.287C196.991,103.307 197.751,102.447 199.391,102.447C200.291,102.447 201.251,102.627 202.011,102.867L202.011,104.607C201.311,105.407 200.311,106.067 199.131,106.067Z" style="fill-rule:nonzero;"/>
            <path d="M211.991,106.567L215.851,106.567L215.851,105.907L214.271,105.907L214.271,91.967L211.991,91.967L211.991,92.627L213.531,92.627L213.531,105.907L211.991,105.907L211.991,106.567Z" style="fill-rule:nonzero;"/>
        </g>
    </g>
</svg>
